<svg width="34" height="34" viewBox="0 0 34 34" fill="none" xmlns="http://www.w3.org/2000/svg">
<g filter="url(#filter0_d_234_20084)">
<rect x="16.9707" width="24" height="24" rx="9" transform="rotate(45 16.9707 0)" fill="#FDFDFD"/>
<path d="M20.823 21.284C20.3388 22.0073 19.8255 22.7132 19.0438 22.7248C18.2622 22.7423 18.0113 22.264 17.1247 22.264C16.2322 22.264 15.958 22.7132 15.2172 22.7423C14.453 22.7715 13.8755 21.9723 13.3855 21.2665C12.388 19.8257 11.6238 17.1715 12.6505 15.3865C13.158 14.4999 14.068 13.9399 15.0538 13.9223C15.8005 13.9107 16.5122 14.4298 16.973 14.4298C17.428 14.4298 18.2913 13.8057 19.1955 13.899C19.5747 13.9165 20.6363 14.0507 21.3188 15.054C21.2663 15.089 20.053 15.8007 20.0647 17.2765C20.0822 19.0382 21.6105 19.6273 21.628 19.6332C21.6105 19.674 21.383 20.4732 20.823 21.284ZM17.4922 11.9507C17.918 11.4665 18.6238 11.099 19.2072 11.0757C19.283 11.7582 19.0088 12.4465 18.6005 12.9365C18.198 13.4324 17.533 13.8173 16.8797 13.7648C16.7922 13.094 17.1188 12.394 17.4922 11.9507Z" fill="#419444"/>
</g>
<defs>
<filter id="filter0_d_234_20084" x="-1.5" y="-1.5" width="36.9414" height="36.9409" filterUnits="userSpaceOnUse" color-interpolation-filters="sRGB">
<feFlood flood-opacity="0" result="BackgroundImageFix"/>
<feColorMatrix in="SourceAlpha" type="matrix" values="0 0 0 0 0 0 0 0 0 0 0 0 0 0 0 0 0 0 127 0" result="hardAlpha"/>
<feOffset/>
<feGaussianBlur stdDeviation="0.75"/>
<feComposite in2="hardAlpha" operator="out"/>
<feColorMatrix type="matrix" values="0 0 0 0 0 0 0 0 0 0 0 0 0 0 0 0 0 0 0.2 0"/>
<feBlend mode="normal" in2="BackgroundImageFix" result="effect1_dropShadow_234_20084"/>
<feBlend mode="normal" in="SourceGraphic" in2="effect1_dropShadow_234_20084" result="shape"/>
</filter>
</defs>
</svg>
