<svg width="57" height="56" viewBox="0 0 57 56" fill="none" xmlns="http://www.w3.org/2000/svg">
<g filter="url(#filter0_d_234_19233)">
<rect x="28.9707" width="39.598" height="39.598" rx="14.8492" transform="rotate(45 28.9707 0)" fill="#FDFDFD"/>
<path fill-rule="evenodd" clip-rule="evenodd" d="M26.0007 19.0938H22.5007C21.1716 19.0938 20.0945 20.1709 20.0945 21.5V25C20.0945 25.3622 20.3885 25.6562 20.7507 25.6562C21.113 25.6562 21.407 25.3622 21.407 25V21.5C21.407 20.8962 21.897 20.4062 22.5007 20.4062H26.0007C26.363 20.4062 26.657 20.1122 26.657 19.75C26.657 19.3877 26.363 19.0938 26.0007 19.0938Z" fill="#419444"/>
<path fill-rule="evenodd" clip-rule="evenodd" d="M26.0007 36.5937H22.5007C21.897 36.5937 21.407 36.1037 21.407 35.5V32C21.407 31.6377 21.113 31.3438 20.7507 31.3438C20.3885 31.3438 20.0945 31.6377 20.0945 32V35.5C20.0945 36.8291 21.1716 37.9062 22.5007 37.9062H26.0007C26.363 37.9062 26.657 37.6122 26.657 37.25C26.657 36.8877 26.363 36.5937 26.0007 36.5937Z" fill="#419444"/>
<path fill-rule="evenodd" clip-rule="evenodd" d="M38.907 25V21.5C38.907 20.1709 37.8299 19.0938 36.5007 19.0938H33.0007C32.6385 19.0938 32.3445 19.3877 32.3445 19.75C32.3445 20.1122 32.6385 20.4062 33.0007 20.4062H36.5007C37.1045 20.4062 37.5945 20.8962 37.5945 21.5V25C37.5945 25.3622 37.8885 25.6562 38.2507 25.6562C38.613 25.6562 38.907 25.3622 38.907 25Z" fill="#419444"/>
<path fill-rule="evenodd" clip-rule="evenodd" d="M37.5945 32V35.5C37.5945 36.1037 37.1045 36.5937 36.5007 36.5937H33.0007C32.6385 36.5937 32.3445 36.8877 32.3445 37.25C32.3445 37.6122 32.6385 37.9062 33.0007 37.9062H36.5007C37.8299 37.9062 38.907 36.8291 38.907 35.5V32C38.907 31.6377 38.613 31.3438 38.2507 31.3438C37.8885 31.3438 37.5945 31.6377 37.5945 32Z" fill="#419444"/>
<path fill-rule="evenodd" clip-rule="evenodd" d="M32.3445 23.9736V24.8486C32.3445 25.2109 32.6385 25.5049 33.0007 25.5049C33.363 25.5049 33.657 25.2109 33.657 24.8486V23.9736C33.657 23.6114 33.363 23.3174 33.0007 23.3174C32.6385 23.3174 32.3445 23.6114 32.3445 23.9736Z" fill="#419444"/>
<path fill-rule="evenodd" clip-rule="evenodd" d="M25.3445 23.9736V24.8486C25.3445 25.2109 25.6385 25.5049 26.0007 25.5049C26.363 25.5049 26.657 25.2109 26.657 24.8486V23.9736C26.657 23.6114 26.363 23.3174 26.0007 23.3174C25.6385 23.3174 25.3445 23.6114 25.3445 23.9736Z" fill="#419444"/>
<path fill-rule="evenodd" clip-rule="evenodd" d="M28.8917 26.1019L29.6057 27.8877L29.0369 28.4565C28.7806 28.7129 28.7806 29.1285 29.0369 29.3849C29.2924 29.6412 29.7089 29.6412 29.9644 29.3849L30.8394 28.5099C31.0249 28.3244 31.0827 28.0461 30.9847 27.802L30.1097 25.6145C29.9758 25.2785 29.5934 25.114 29.2566 25.2487C28.9206 25.3835 28.7569 25.7659 28.8917 26.1019Z" fill="#419444"/>
<path fill-rule="evenodd" clip-rule="evenodd" d="M26.1127 32.5531L26.5703 32.8147C28.386 33.8524 30.6155 33.8524 32.4311 32.8147L32.8887 32.5531C33.2037 32.3728 33.3131 31.9721 33.1328 31.6571C32.9535 31.3429 32.5518 31.2336 32.2377 31.4129L31.7801 31.6746C30.3678 32.4822 28.6336 32.4822 27.2213 31.6746L26.7637 31.4129C26.4496 31.2336 26.048 31.3429 25.8686 31.6571C25.6883 31.9721 25.7977 32.3728 26.1127 32.5531Z" fill="#419444"/>
</g>
<defs>
<filter id="filter0_d_234_19233" x="-1.50417" y="-2.47487" width="60.9497" height="60.9497" filterUnits="userSpaceOnUse" color-interpolation-filters="sRGB">
<feFlood flood-opacity="0" result="BackgroundImageFix"/>
<feColorMatrix in="SourceAlpha" type="matrix" values="0 0 0 0 0 0 0 0 0 0 0 0 0 0 0 0 0 0 127 0" result="hardAlpha"/>
<feOffset/>
<feGaussianBlur stdDeviation="1.23744"/>
<feComposite in2="hardAlpha" operator="out"/>
<feColorMatrix type="matrix" values="0 0 0 0 0 0 0 0 0 0 0 0 0 0 0 0 0 0 0.2 0"/>
<feBlend mode="normal" in2="BackgroundImageFix" result="effect1_dropShadow_234_19233"/>
<feBlend mode="normal" in="SourceGraphic" in2="effect1_dropShadow_234_19233" result="shape"/>
</filter>
</defs>
</svg>
