<svg width="51" height="51" viewBox="0 0 51 51" fill="none" xmlns="http://www.w3.org/2000/svg">
<g filter="url(#filter0_d_232_19587)">
<rect x="25.9706" y="0.970581" width="35.3553" height="35.3553" rx="13.2583" transform="rotate(45 25.9706 0.970581)" fill="#FDFDFD"/>
<path d="M34.6072 23.0062C34.6072 25.8076 32.5448 28.1192 29.8637 28.5231V28.4715C29.5973 25.1373 26.8904 22.4304 23.5304 22.164H23.5046C23.9085 19.4829 26.2201 17.4205 29.0215 17.4205C32.1065 17.4205 34.6072 19.9212 34.6072 23.0062Z" fill="#419444"/>
<path d="M28.5747 28.5747C28.3598 25.8506 26.1771 23.6679 23.453 23.4531C23.307 23.4445 23.1523 23.4359 23.0062 23.4359C19.9212 23.4359 17.4205 25.9366 17.4205 29.0216C17.4205 32.1066 19.9212 34.6072 23.0062 34.6072C26.0912 34.6072 28.5918 32.1066 28.5918 29.0216C28.5918 28.8755 28.5832 28.7208 28.5747 28.5747ZM23.7624 29.7778L23.0062 31.1699L22.25 29.7778L20.8579 29.0216L22.25 28.2654L23.0062 26.8732L23.7624 28.2654L25.1545 29.0216L23.7624 29.7778Z" fill="#419444"/>
</g>
<defs>
<filter id="filter0_d_232_19587" x="-1.23913" y="-1.23913" width="54.4194" height="54.4194" filterUnits="userSpaceOnUse" color-interpolation-filters="sRGB">
<feFlood flood-opacity="0" result="BackgroundImageFix"/>
<feColorMatrix in="SourceAlpha" type="matrix" values="0 0 0 0 0 0 0 0 0 0 0 0 0 0 0 0 0 0 127 0" result="hardAlpha"/>
<feOffset/>
<feGaussianBlur stdDeviation="1.10485"/>
<feComposite in2="hardAlpha" operator="out"/>
<feColorMatrix type="matrix" values="0 0 0 0 0 0 0 0 0 0 0 0 0 0 0 0 0 0 0.2 0"/>
<feBlend mode="normal" in2="BackgroundImageFix" result="effect1_dropShadow_232_19587"/>
<feBlend mode="normal" in="SourceGraphic" in2="effect1_dropShadow_232_19587" result="shape"/>
</filter>
</defs>
</svg>
