<svg width="50" height="50" viewBox="0 0 50 50" fill="none" xmlns="http://www.w3.org/2000/svg">
<g filter="url(#filter0_d_232_19597)">
<rect x="25" width="35.3553" height="35.3553" rx="13.2583" transform="rotate(45 25 0)" fill="#FDFDFD"/>
<path d="M32.7324 33.5916H17.2674C16.9152 33.5916 16.623 33.2995 16.623 32.9472C16.623 32.595 16.9152 32.3029 17.2674 32.3029H32.7324C33.0847 32.3029 33.3768 32.595 33.3768 32.9472C33.3768 33.2995 33.0847 33.5916 32.7324 33.5916Z" fill="#419444"/>
<path d="M31.0313 17.6798C29.3645 16.013 27.7321 15.9701 26.0223 17.6798L24.9828 18.7194C24.8968 18.8053 24.8625 18.9428 24.8968 19.0631C25.5498 21.3399 27.3712 23.1613 29.648 23.8143C29.6824 23.8229 29.7168 23.8315 29.7511 23.8315C29.8456 23.8315 29.9316 23.7971 30.0003 23.7284L31.0313 22.6888C31.8819 21.8468 32.2943 21.0306 32.2943 20.2058C32.3029 19.3552 31.8905 18.5304 31.0313 17.6798Z" fill="#419444"/>
<path d="M28.1016 24.5962C27.8524 24.4759 27.6119 24.3556 27.3799 24.2181C27.1909 24.1064 27.0104 23.9862 26.83 23.8573C26.684 23.7628 26.5121 23.6253 26.3489 23.4878C26.3317 23.4793 26.2716 23.4277 26.2028 23.359C25.9193 23.1184 25.6014 22.8091 25.3179 22.4654C25.2921 22.4483 25.2492 22.3881 25.189 22.3108C25.1031 22.2077 24.957 22.0359 24.8282 21.8382C24.7251 21.7094 24.6048 21.5204 24.4931 21.3313C24.3556 21.0994 24.2353 20.8674 24.1151 20.6268C23.9573 20.2889 23.5138 20.1885 23.2501 20.4522L18.4188 25.2835C18.3071 25.3952 18.204 25.61 18.1782 25.756L17.7143 29.0467C17.6283 29.6309 17.7916 30.1808 18.1524 30.5502C18.4617 30.8509 18.8913 31.0141 19.3553 31.0141C19.4584 31.0141 19.5615 31.0056 19.6646 30.9884L22.9638 30.5244C23.1184 30.4986 23.3332 30.3955 23.4363 30.2839L28.2756 25.4446C28.534 25.1861 28.4369 24.7415 28.1016 24.5962Z" fill="#419444"/>
</g>
<defs>
<filter id="filter0_d_232_19597" x="-2.20971" y="-2.20971" width="54.4194" height="54.4194" filterUnits="userSpaceOnUse" color-interpolation-filters="sRGB">
<feFlood flood-opacity="0" result="BackgroundImageFix"/>
<feColorMatrix in="SourceAlpha" type="matrix" values="0 0 0 0 0 0 0 0 0 0 0 0 0 0 0 0 0 0 127 0" result="hardAlpha"/>
<feOffset/>
<feGaussianBlur stdDeviation="1.10485"/>
<feComposite in2="hardAlpha" operator="out"/>
<feColorMatrix type="matrix" values="0 0 0 0 0 0 0 0 0 0 0 0 0 0 0 0 0 0 0.2 0"/>
<feBlend mode="normal" in2="BackgroundImageFix" result="effect1_dropShadow_232_19597"/>
<feBlend mode="normal" in="SourceGraphic" in2="effect1_dropShadow_232_19597" result="shape"/>
</filter>
</defs>
</svg>
