<svg width="50" height="50" viewBox="0 0 50 50" fill="none" xmlns="http://www.w3.org/2000/svg">
<g filter="url(#filter0_d_232_19595)">
<rect x="25" width="35.3553" height="35.3553" rx="13.2583" transform="rotate(45 25 0)" fill="#FDFDFD"/>
<path d="M28.5999 16.4083H21.4001C18.2727 16.4083 16.4083 18.2727 16.4083 21.4001V28.5913C16.4083 31.7273 18.2727 33.5917 21.4001 33.5917H28.5913C31.7187 33.5917 33.5831 31.7273 33.5831 28.5999V21.4001C33.5917 18.2727 31.7273 16.4083 28.5999 16.4083ZM21.9671 24.1236C22.2163 23.8745 22.6287 23.8745 22.8778 24.1236L24.3556 25.6014V20.2832C24.3556 19.9309 24.6477 19.6388 25 19.6388C25.3522 19.6388 25.6444 19.9309 25.6444 20.2832V25.6014L27.1221 24.1236C27.3713 23.8745 27.7837 23.8745 28.0328 24.1236C28.282 24.3728 28.282 24.7852 28.0328 25.0344L25.4553 27.6119C25.3952 27.672 25.3265 27.715 25.2491 27.7493C25.1718 27.7837 25.0859 27.8009 25 27.8009C24.9141 27.8009 24.8367 27.7837 24.7508 27.7493C24.6735 27.715 24.6048 27.672 24.5446 27.6119L21.9671 25.0344C21.718 24.7852 21.718 24.3814 21.9671 24.1236ZM30.3612 29.4848C28.6343 30.0605 26.8214 30.3526 25 30.3526C23.1786 30.3526 21.3657 30.0605 19.6388 29.4848C19.3037 29.3731 19.1233 29.0037 19.235 28.6686C19.3467 28.3336 19.7075 28.1445 20.0512 28.2648C23.2473 29.3302 26.7613 29.3302 29.9574 28.2648C30.2925 28.1531 30.6619 28.3336 30.7736 28.6686C30.8767 29.0123 30.6963 29.3731 30.3612 29.4848Z" fill="#419444"/>
</g>
<defs>
<filter id="filter0_d_232_19595" x="-2.20971" y="-2.20971" width="54.4194" height="54.4194" filterUnits="userSpaceOnUse" color-interpolation-filters="sRGB">
<feFlood flood-opacity="0" result="BackgroundImageFix"/>
<feColorMatrix in="SourceAlpha" type="matrix" values="0 0 0 0 0 0 0 0 0 0 0 0 0 0 0 0 0 0 127 0" result="hardAlpha"/>
<feOffset/>
<feGaussianBlur stdDeviation="1.10485"/>
<feComposite in2="hardAlpha" operator="out"/>
<feColorMatrix type="matrix" values="0 0 0 0 0 0 0 0 0 0 0 0 0 0 0 0 0 0 0.2 0"/>
<feBlend mode="normal" in2="BackgroundImageFix" result="effect1_dropShadow_232_19595"/>
<feBlend mode="normal" in="SourceGraphic" in2="effect1_dropShadow_232_19595" result="shape"/>
</filter>
</defs>
</svg>
