<svg width="40" height="40" viewBox="0 0 40 40" fill="none" xmlns="http://www.w3.org/2000/svg">
<g filter="url(#filter0_d_232_19790)">
<rect x="20" y="0.0839844" width="28.168" height="28.168" rx="10.563" transform="rotate(45 20 0.0839844)" fill="#FDFDFD"/>
<path d="M24.8807 17.1876C25.2557 17.1876 25.5557 16.8876 25.5557 16.5126V13.0251C25.5557 12.6501 25.2557 12.3501 24.8807 12.3501C24.5057 12.3501 24.2057 12.6501 24.2057 13.0251V16.5126C24.2057 16.8801 24.5132 17.1876 24.8807 17.1876Z" fill="#419444"/>
<path d="M19.9981 22.8125C19.6231 22.8125 19.3231 23.1125 19.3231 23.4875V26.975C19.3231 27.35 19.6231 27.65 19.9981 27.65C20.3731 27.65 20.6731 27.35 20.6731 26.975V23.4875C20.6731 23.12 20.3731 22.8125 19.9981 22.8125Z" fill="#419444"/>
<path d="M15.1157 17.1876C15.4907 17.1876 15.7907 16.8876 15.7907 16.5126V13.0251C15.7907 12.6501 15.4907 12.3501 15.1157 12.3501C14.7407 12.3501 14.4407 12.6501 14.4407 13.0251V16.5126C14.4407 16.8801 14.7407 17.1876 15.1157 17.1876Z" fill="#419444"/>
<path d="M16.5107 18.6274H13.7207C13.3457 18.6274 13.0457 18.9274 13.0457 19.3024C13.0457 19.6774 13.3457 19.9774 13.7207 19.9774H14.4407V26.9749C14.4407 27.3499 14.7407 27.6499 15.1157 27.6499C15.4907 27.6499 15.7907 27.3499 15.7907 26.9749V19.9774H16.5107C16.8857 19.9774 17.1857 19.6774 17.1857 19.3024C17.1857 18.9274 16.8782 18.6274 16.5107 18.6274Z" fill="#419444"/>
<path d="M26.2757 18.6274H23.4857C23.1107 18.6274 22.8107 18.9274 22.8107 19.3024C22.8107 19.6774 23.1107 19.9774 23.4857 19.9774H24.2057V26.9749C24.2057 27.3499 24.5057 27.6499 24.8807 27.6499C25.2557 27.6499 25.5557 27.3499 25.5557 26.9749V19.9774H26.2757C26.6507 19.9774 26.9507 19.6774 26.9507 19.3024C26.9507 18.9274 26.6507 18.6274 26.2757 18.6274Z" fill="#419444"/>
<path d="M21.3932 20.0226H20.6732V13.0251C20.6732 12.6501 20.3732 12.3501 19.9982 12.3501C19.6232 12.3501 19.3232 12.6501 19.3232 13.0251V20.0226H18.6032C18.2282 20.0226 17.9282 20.3226 17.9282 20.6976C17.9282 21.0726 18.2282 21.3726 18.6032 21.3726H21.3932C21.7682 21.3726 22.0682 21.0726 22.0682 20.6976C22.0682 20.3226 21.7682 20.0226 21.3932 20.0226Z" fill="#419444"/>
</g>
<defs>
<filter id="filter0_d_232_19790" x="-1.67822" y="-1.67651" width="43.3564" height="43.3564" filterUnits="userSpaceOnUse" color-interpolation-filters="sRGB">
<feFlood flood-opacity="0" result="BackgroundImageFix"/>
<feColorMatrix in="SourceAlpha" type="matrix" values="0 0 0 0 0 0 0 0 0 0 0 0 0 0 0 0 0 0 127 0" result="hardAlpha"/>
<feOffset/>
<feGaussianBlur stdDeviation="0.880249"/>
<feComposite in2="hardAlpha" operator="out"/>
<feColorMatrix type="matrix" values="0 0 0 0 0 0 0 0 0 0 0 0 0 0 0 0 0 0 0.2 0"/>
<feBlend mode="normal" in2="BackgroundImageFix" result="effect1_dropShadow_232_19790"/>
<feBlend mode="normal" in="SourceGraphic" in2="effect1_dropShadow_232_19790" result="shape"/>
</filter>
</defs>
</svg>
