<svg width="14" height="14" viewBox="0 0 14 14" fill="none" xmlns="http://www.w3.org/2000/svg">
<path d="M2.91634 8.75C2.36801 8.75 1.86051 8.9425 1.45801 9.26333C0.921341 9.68917 0.583008 10.3483 0.583008 11.0833C0.583008 11.5208 0.705508 11.935 0.921341 12.285C1.32384 12.9617 2.06467 13.4167 2.91634 13.4167C3.50551 13.4167 4.04217 13.2008 4.45051 12.8333C4.63134 12.6817 4.78884 12.495 4.91134 12.285C5.12717 11.935 5.24967 11.5208 5.24967 11.0833C5.24967 9.79417 4.20551 8.75 2.91634 8.75ZM4.12384 10.8325L2.88134 11.9817C2.79967 12.0575 2.68884 12.0983 2.58384 12.0983C2.47301 12.0983 2.36217 12.0575 2.27467 11.97L1.69717 11.3925C1.52801 11.2233 1.52801 10.9433 1.69717 10.7742C1.86634 10.605 2.14634 10.605 2.31551 10.7742L2.59551 11.0542L3.52884 10.1908C3.70384 10.0275 3.98384 10.0392 4.14717 10.2142C4.31051 10.3892 4.29884 10.6692 4.12384 10.8325Z" fill="#419444"/>
<path d="M8.66217 2.30417V4.52083H7.78717V2.30417C7.78717 2.14667 7.64717 2.07083 7.55384 2.07083C7.52467 2.07083 7.49551 2.07667 7.46634 2.08833L2.84051 3.8325C2.53134 3.94917 2.33301 4.24083 2.33301 4.57333V4.96417C1.80217 5.36083 1.45801 5.99667 1.45801 6.71417V4.57333C1.45801 3.87917 1.88384 3.26083 2.53134 3.01583L7.16301 1.26583C7.29134 1.21917 7.42551 1.19583 7.55384 1.19583C8.13717 1.19583 8.66217 1.66833 8.66217 2.30417Z" fill="#419444"/>
<path d="M12.5417 8.45833V9.04167C12.5417 9.19917 12.4192 9.3275 12.2559 9.33333H11.4042C11.0951 9.33333 10.8151 9.10583 10.7917 8.8025C10.7742 8.62167 10.8442 8.4525 10.9609 8.33583C11.0659 8.225 11.2117 8.16667 11.3692 8.16667H12.2501C12.4192 8.1725 12.5417 8.30083 12.5417 8.45833Z" fill="#419444"/>
<path d="M11.363 7.55417H11.958C12.2788 7.55417 12.5413 7.29167 12.5413 6.97083V6.71417C12.5413 5.50667 11.5555 4.52083 10.348 4.52083H3.65134C3.15551 4.52083 2.70051 4.68417 2.33301 4.96417C1.80217 5.36083 1.45801 5.99667 1.45801 6.71417V7.7525C1.45801 7.97417 1.69134 8.11417 1.90134 8.04417C2.22801 7.93333 2.57217 7.875 2.91634 7.875C4.68384 7.875 6.12467 9.31583 6.12467 11.0833C6.12467 11.5033 6.01384 11.9642 5.83884 12.3725C5.74551 12.5825 5.89134 12.8333 6.11884 12.8333H10.348C11.5555 12.8333 12.5413 11.8475 12.5413 10.64V10.5292C12.5413 10.2083 12.2788 9.94583 11.958 9.94583H11.4505C10.8905 9.94583 10.3538 9.60167 10.208 9.05917C10.0913 8.61583 10.2313 8.18417 10.523 7.90417C10.7388 7.6825 11.0363 7.55417 11.363 7.55417ZM8.16634 7.4375H5.24967C5.01051 7.4375 4.81217 7.23917 4.81217 7C4.81217 6.76083 5.01051 6.5625 5.24967 6.5625H8.16634C8.40551 6.5625 8.60384 6.76083 8.60384 7C8.60384 7.23917 8.40551 7.4375 8.16634 7.4375Z" fill="#419444"/>
</svg>
