<svg width="34" height="34" viewBox="0 0 34 34" fill="none" xmlns="http://www.w3.org/2000/svg">
<g filter="url(#filter0_d_234_20091)">
<rect x="16.9707" width="24" height="24" rx="9" transform="rotate(45 16.9707 0)" fill="#FDFDFD"/>
<path d="M22.7197 15.8574H22.2498V15.8332H16.9998V18.1665H20.2965C19.8156 19.5248 18.5232 20.4998 16.9998 20.4998C15.067 20.4998 13.4998 18.9327 13.4998 16.9998C13.4998 15.067 15.067 13.4998 16.9998 13.4998C17.892 13.4998 18.7038 13.8364 19.3218 14.3862L20.9718 12.7363C19.9299 11.7653 18.5363 11.1665 16.9998 11.1665C13.7784 11.1665 11.1665 13.7784 11.1665 16.9998C11.1665 20.2213 13.7784 22.8332 16.9998 22.8332C20.2213 22.8332 22.8332 20.2213 22.8332 16.9998C22.8332 16.6087 22.7929 16.2269 22.7197 15.8574Z" fill="#FFC107"/>
<path d="M11.8389 14.2847L13.7554 15.6903C14.274 14.4063 15.5299 13.4998 16.9996 13.4998C17.8918 13.4998 18.7035 13.8364 19.3216 14.3862L20.9715 12.7363C19.9297 11.7653 18.5361 11.1665 16.9996 11.1665C14.759 11.1665 12.816 12.4315 11.8389 14.2847Z" fill="#FF3D00"/>
<path d="M17.0003 22.8335C18.507 22.8335 19.8761 22.2569 20.9112 21.3192L19.1058 19.7915C18.5005 20.2518 17.7608 20.5008 17.0003 20.5002C15.483 20.5002 14.1947 19.5327 13.7094 18.1826L11.8071 19.6482C12.7725 21.5374 14.7331 22.8335 17.0003 22.8335Z" fill="#4CAF50"/>
<path d="M22.7199 15.8577H22.25V15.8335H17V18.1668H20.2967C20.0666 18.8133 19.6522 19.3782 19.1047 19.7917L19.1055 19.7911L20.911 21.3189C20.7832 21.435 22.8333 19.9168 22.8333 17.0002C22.8333 16.609 22.7931 16.2272 22.7199 15.8577Z" fill="#1976D2"/>
</g>
<defs>
<filter id="filter0_d_234_20091" x="-1.5" y="-1.5" width="36.9414" height="36.9409" filterUnits="userSpaceOnUse" color-interpolation-filters="sRGB">
<feFlood flood-opacity="0" result="BackgroundImageFix"/>
<feColorMatrix in="SourceAlpha" type="matrix" values="0 0 0 0 0 0 0 0 0 0 0 0 0 0 0 0 0 0 127 0" result="hardAlpha"/>
<feOffset/>
<feGaussianBlur stdDeviation="0.75"/>
<feComposite in2="hardAlpha" operator="out"/>
<feColorMatrix type="matrix" values="0 0 0 0 0 0 0 0 0 0 0 0 0 0 0 0 0 0 0.2 0"/>
<feBlend mode="normal" in2="BackgroundImageFix" result="effect1_dropShadow_234_20091"/>
<feBlend mode="normal" in="SourceGraphic" in2="effect1_dropShadow_234_20091" result="shape"/>
</filter>
</defs>
</svg>
