<svg width="57" height="56" viewBox="0 0 57 56" fill="none" xmlns="http://www.w3.org/2000/svg">
<g filter="url(#filter0_d_234_19223)">
<rect x="28.9707" width="39.598" height="39.598" rx="14.8492" transform="rotate(45 28.9707 0)" fill="#FDFDFD"/>
<path d="M24.875 28C25.969 28 27.0182 27.5654 27.7918 26.7918C28.5654 26.0182 29 24.969 29 23.875C29 22.781 28.5654 21.7318 27.7918 20.9582C27.0182 20.1846 25.969 19.75 24.875 19.75C23.781 19.75 22.7318 20.1846 21.9582 20.9582C21.1846 21.7318 20.75 22.781 20.75 23.875C20.75 24.969 21.1846 26.0182 21.9582 26.7918C22.7318 27.5654 23.781 28 24.875 28ZM34.25 28C35.0456 28 35.8087 27.6839 36.3713 27.1213C36.9339 26.5587 37.25 25.7956 37.25 25C37.25 24.2044 36.9339 23.4413 36.3713 22.8787C35.8087 22.3161 35.0456 22 34.25 22C33.4543 22 32.6913 22.3161 32.1287 22.8787C31.5661 23.4413 31.25 24.2044 31.25 25C31.25 25.7956 31.5661 26.5587 32.1287 27.1213C32.6913 27.6839 33.4543 28 34.25 28ZM20.75 29.5C20.1533 29.5 19.581 29.7371 19.159 30.159C18.7371 30.581 18.5 31.1533 18.5 31.75V31.8625C18.5 31.8625 18.5 36.25 24.875 36.25C31.25 36.25 31.25 31.8625 31.25 31.8625V31.75C31.25 31.1533 31.0129 30.581 30.591 30.159C30.169 29.7371 29.5967 29.5 29 29.5H20.75ZM34.25 34.75C33.158 34.75 32.294 34.6015 31.6092 34.3652C31.9332 33.8402 32.1192 33.334 32.2242 32.9252C32.3008 32.6315 32.3492 32.3312 32.369 32.0282L32.372 31.948L32.3727 31.9165V31.75C32.3744 30.9197 32.0684 30.1181 31.514 29.5H37.6947C37.9318 29.4999 38.1665 29.5465 38.3855 29.6371C38.6046 29.7278 38.8036 29.8607 38.9712 30.0283C39.1388 30.1958 39.2718 30.3948 39.3626 30.6138C39.4533 30.8328 39.5 31.0675 39.5 31.3045C39.5 31.3045 39.5 34.75 34.25 34.75Z" fill="#419444"/>
</g>
<defs>
<filter id="filter0_d_234_19223" x="-1.50417" y="-2.47487" width="60.9497" height="60.9497" filterUnits="userSpaceOnUse" color-interpolation-filters="sRGB">
<feFlood flood-opacity="0" result="BackgroundImageFix"/>
<feColorMatrix in="SourceAlpha" type="matrix" values="0 0 0 0 0 0 0 0 0 0 0 0 0 0 0 0 0 0 127 0" result="hardAlpha"/>
<feOffset/>
<feGaussianBlur stdDeviation="1.23744"/>
<feComposite in2="hardAlpha" operator="out"/>
<feColorMatrix type="matrix" values="0 0 0 0 0 0 0 0 0 0 0 0 0 0 0 0 0 0 0.2 0"/>
<feBlend mode="normal" in2="BackgroundImageFix" result="effect1_dropShadow_234_19223"/>
<feBlend mode="normal" in="SourceGraphic" in2="effect1_dropShadow_234_19223" result="shape"/>
</filter>
</defs>
</svg>
