<svg width="14" height="14" viewBox="0 0 14 14" fill="none" xmlns="http://www.w3.org/2000/svg">
<path d="M12.5124 7.95667V8.54C12.5124 8.6975 12.3899 8.82583 12.2266 8.83167H11.3749C11.0658 8.83167 10.7858 8.60417 10.7624 8.30083C10.7449 8.12 10.8149 7.95083 10.9316 7.83417C11.0366 7.72333 11.1824 7.665 11.3399 7.665H12.2208C12.3899 7.67083 12.5124 7.79917 12.5124 7.95667Z" fill="#419444"/>
<path d="M10.4937 7.4025C10.202 7.68833 10.062 8.11417 10.1787 8.5575C10.3304 9.1 10.8612 9.44417 11.4212 9.44417H11.9287C12.2495 9.44417 12.512 9.70667 12.512 10.0275V10.1383C12.512 11.3458 11.5262 12.3317 10.3187 12.3317H3.62204C2.41454 12.3317 1.42871 11.3458 1.42871 10.1383V6.2125C1.42871 5.495 1.77288 4.85917 2.30371 4.4625C2.67121 4.1825 3.12621 4.01917 3.62204 4.01917H10.3187C11.5262 4.01917 12.512 5.005 12.512 6.2125V6.46917C12.512 6.79 12.2495 7.0525 11.9287 7.0525H11.3337C11.007 7.0525 10.7095 7.18083 10.4937 7.4025Z" fill="#419444"/>
<path d="M9.45012 2.81167C9.60762 2.96917 9.47345 3.21417 9.25178 3.21417L4.77178 3.20833C4.51512 3.20833 4.38095 2.89333 4.56762 2.7125L5.51262 1.76167C6.31178 0.968334 7.60678 0.968334 8.40595 1.76167L9.42678 2.79417C9.43262 2.8 9.44428 2.80583 9.45012 2.81167Z" fill="#419444"/>
</svg>
