<svg width="51" height="51" viewBox="0 0 51 51" fill="none" xmlns="http://www.w3.org/2000/svg">
<g filter="url(#filter0_d_232_19561)">
<rect x="25.9706" y="0.970581" width="35.3553" height="35.3553" rx="13.2583" transform="rotate(45 25.9706 0.970581)" fill="#FDFDFD"/>
<g clip-path="url(#clip0_232_19561)">
<path d="M26.4489 25.5984C26.4455 25.5949 26.4446 25.5902 26.4411 25.5867L22.9929 22.1385V19.9718C22.9929 19.8112 22.9291 19.6579 22.8159 19.5445L19.1906 15.879C19.0183 15.7068 18.7581 15.6542 18.5321 15.7481C18.3061 15.8413 18.1591 16.062 18.1591 16.3062V18.1189H16.3062C16.062 18.1188 15.8413 18.2657 15.7481 18.4918C15.6542 18.7177 15.7062 18.9774 15.8791 19.1503L19.5446 22.8158C19.6579 22.9291 19.8113 22.9929 19.9718 22.9929H22.1385L25.5867 26.4411C25.5902 26.4445 25.5949 26.4455 25.5985 26.4489C25.8337 26.6734 26.191 26.6764 26.4294 26.4489C26.6804 26.2093 26.6748 25.8351 26.4489 25.5984Z" fill="#419444"/>
<path d="M26.0139 15.702C24.4679 15.702 23.0061 16.0954 21.6898 16.7098L23.5433 18.5633C24.3212 18.3046 25.1503 18.1592 26.014 18.1592C30.3449 18.1591 33.8687 21.6829 33.8687 26.0139C33.8687 30.3449 30.3449 33.8687 26.0139 33.8687C21.6829 33.8687 18.1591 30.3449 18.1591 26.0139C18.1591 25.1503 18.3046 24.3212 18.5632 23.5433L16.7097 21.6898C16.0954 23.0061 15.702 24.4679 15.702 26.0139C15.702 31.6778 20.35 36.3259 26.0139 36.3259C31.6778 36.3259 36.3259 31.6778 36.3259 26.0139C36.3259 20.35 31.6779 15.702 26.0139 15.702Z" fill="#419444"/>
<path d="M26.014 20.576C25.3753 20.576 24.7711 20.707 24.2013 20.9101V21.6381L25.5981 23.035C25.7353 23.0158 25.8716 22.9929 26.014 22.9929C27.6797 22.9929 29.035 24.3483 29.035 26.014C29.035 27.6798 27.6797 29.0351 26.014 29.0351C24.3482 29.0351 22.9929 27.6798 22.9929 26.014C22.9929 25.8716 23.0158 25.7353 23.0349 25.5982L21.6381 24.2013H20.9101C20.707 24.7711 20.576 25.3753 20.576 26.014C20.576 29.0126 23.0154 31.4519 26.014 31.4519C29.0126 31.4519 31.4519 29.0126 31.4519 26.014C31.4519 23.0153 29.0126 20.576 26.014 20.576Z" fill="#419444"/>
</g>
</g>
<defs>
<filter id="filter0_d_232_19561" x="-1.23913" y="-1.23913" width="54.4194" height="54.4194" filterUnits="userSpaceOnUse" color-interpolation-filters="sRGB">
<feFlood flood-opacity="0" result="BackgroundImageFix"/>
<feColorMatrix in="SourceAlpha" type="matrix" values="0 0 0 0 0 0 0 0 0 0 0 0 0 0 0 0 0 0 127 0" result="hardAlpha"/>
<feOffset/>
<feGaussianBlur stdDeviation="1.10485"/>
<feComposite in2="hardAlpha" operator="out"/>
<feColorMatrix type="matrix" values="0 0 0 0 0 0 0 0 0 0 0 0 0 0 0 0 0 0 0.2 0"/>
<feBlend mode="normal" in2="BackgroundImageFix" result="effect1_dropShadow_232_19561"/>
<feBlend mode="normal" in="SourceGraphic" in2="effect1_dropShadow_232_19561" result="shape"/>
</filter>
<clipPath id="clip0_232_19561">
<rect width="20.6239" height="20.6239" fill="white" transform="translate(15.7019 15.702)"/>
</clipPath>
</defs>
</svg>
