<svg width="37" height="36" viewBox="0 0 37 36" fill="none" xmlns="http://www.w3.org/2000/svg">
<g filter="url(#filter0_d_161_1996)">
<g clip-path="url(#clip0_161_1996)">
<rect x="18.8838" y="0.03125" width="25.4126" height="25.4126" rx="10.5886" transform="rotate(45 18.8838 0.03125)" fill="#F1FFF0"/>
<path d="M20.8483 23.1812C20.8483 23.8799 20.4758 24.4147 19.8707 24.7643C19.2659 25.1137 18.5207 25.1137 17.917 24.7643C17.3118 24.4147 16.9395 23.8799 16.9395 23.1812" fill="#419444"/>
<path d="M18.8931 10.9807C19.4262 10.9807 19.8556 11.3094 19.8556 11.8148C19.8556 12.1329 19.8667 12.3703 20.0666 12.4311C21.7666 12.9444 22.8567 14.1477 22.8567 15.7103V18.3366C22.8567 19.5399 23.349 19.7834 23.9685 20.2437C24.8656 20.9091 24.6608 22.2948 23.6313 22.2938H14.1553C13.1258 22.2948 12.921 20.9091 13.8181 20.2437C14.4369 19.7834 14.9299 19.5399 14.9299 18.3366V15.7103C14.9299 14.1477 16.02 12.9444 17.72 12.4311C17.9193 12.3703 17.931 12.1329 17.931 11.8148C17.9312 11.3094 18.3608 10.9807 18.8931 10.9807Z" fill="#419444"/>
</g>
</g>
<defs>
<filter id="filter0_d_161_1996" x="-0.144795" y="-1.02761" width="38.0572" height="38.0565" filterUnits="userSpaceOnUse" color-interpolation-filters="sRGB">
<feFlood flood-opacity="0" result="BackgroundImageFix"/>
<feColorMatrix in="SourceAlpha" type="matrix" values="0 0 0 0 0 0 0 0 0 0 0 0 0 0 0 0 0 0 127 0" result="hardAlpha"/>
<feOffset/>
<feGaussianBlur stdDeviation="0.529429"/>
<feComposite in2="hardAlpha" operator="out"/>
<feColorMatrix type="matrix" values="0 0 0 0 0 0 0 0 0 0 0 0 0 0 0 0 0 0 0.15 0"/>
<feBlend mode="normal" in2="BackgroundImageFix" result="effect1_dropShadow_161_1996"/>
<feBlend mode="normal" in="SourceGraphic" in2="effect1_dropShadow_161_1996" result="shape"/>
</filter>
<clipPath id="clip0_161_1996">
<rect x="18.8838" y="0.03125" width="25.4126" height="25.4126" rx="10.5886" transform="rotate(45 18.8838 0.03125)" fill="white"/>
</clipPath>
</defs>
</svg>
