<svg width="40" height="40" viewBox="0 0 40 40" fill="none" xmlns="http://www.w3.org/2000/svg">
<g filter="url(#filter0_d_232_19794)">
<rect x="20" y="0.0839844" width="28.168" height="28.168" rx="10.563" transform="rotate(45 20 0.0839844)" fill="#FDFDFD"/>
<path d="M24.9031 14.1275L20.7781 12.5825C20.3506 12.425 19.6531 12.425 19.2256 12.5825L15.1006 14.1275C14.3056 14.4275 13.6606 15.3575 13.6606 16.205V22.28C13.6606 22.8875 14.0581 23.69 14.5456 24.05L18.6706 27.1325C19.3981 27.68 20.5906 27.68 21.3181 27.1325L25.4431 24.05C25.9306 23.6825 26.3281 22.8875 26.3281 22.28V16.205C26.3356 15.3575 25.6906 14.4275 24.9031 14.1275ZM20.5606 20.6525V22.625C20.5606 22.9325 20.3056 23.1875 19.9981 23.1875C19.6906 23.1875 19.4356 22.9325 19.4356 22.625V20.6525C18.6781 20.4125 18.1231 19.7075 18.1231 18.875C18.1231 17.84 18.9631 17 19.9981 17C21.0331 17 21.8731 17.84 21.8731 18.875C21.8731 19.715 21.3181 20.4125 20.5606 20.6525Z" fill="#419444"/>
</g>
<defs>
<filter id="filter0_d_232_19794" x="-1.67822" y="-1.67651" width="43.3564" height="43.3564" filterUnits="userSpaceOnUse" color-interpolation-filters="sRGB">
<feFlood flood-opacity="0" result="BackgroundImageFix"/>
<feColorMatrix in="SourceAlpha" type="matrix" values="0 0 0 0 0 0 0 0 0 0 0 0 0 0 0 0 0 0 127 0" result="hardAlpha"/>
<feOffset/>
<feGaussianBlur stdDeviation="0.880249"/>
<feComposite in2="hardAlpha" operator="out"/>
<feColorMatrix type="matrix" values="0 0 0 0 0 0 0 0 0 0 0 0 0 0 0 0 0 0 0.2 0"/>
<feBlend mode="normal" in2="BackgroundImageFix" result="effect1_dropShadow_232_19794"/>
<feBlend mode="normal" in="SourceGraphic" in2="effect1_dropShadow_232_19794" result="shape"/>
</filter>
</defs>
</svg>
