<svg width="50" height="50" viewBox="0 0 50 50" fill="none" xmlns="http://www.w3.org/2000/svg">
<g filter="url(#filter0_d_232_20731)">
<rect x="25" width="35.3553" height="35.3553" rx="13.2583" transform="rotate(45 25 0)" fill="#FDFDFD"/>
<g clip-path="url(#clip0_232_20731)">
<path d="M25 35C30.5228 35 35 30.5228 35 25C35 19.4772 30.5228 15 25 15C19.4772 15 15 19.4772 15 25C15 30.5228 19.4772 35 25 35Z" fill="#29A71A"/>
<path d="M29.4085 20.5908C28.3681 19.54 26.9864 18.8956 25.5127 18.7738C24.039 18.652 22.5703 19.0608 21.3715 19.9265C20.1727 20.7922 19.3227 22.0579 18.9748 23.4951C18.627 24.9323 18.8041 26.4466 19.4744 27.7647L18.8165 30.959C18.8096 30.9908 18.8094 31.0236 18.8159 31.0555C18.8223 31.0874 18.8353 31.1176 18.854 31.1442C18.8813 31.1846 18.9203 31.2157 18.9658 31.2334C19.0113 31.2511 19.0611 31.2544 19.1085 31.2431L22.2392 30.501C23.5536 31.1543 25.0571 31.3201 26.4823 30.9689C27.9074 30.6177 29.1618 29.7723 30.0221 28.583C30.8824 27.3938 31.2929 25.9379 31.1806 24.4744C31.0682 23.0109 30.4403 21.6348 29.4085 20.5908ZM28.4324 28.3817C27.7125 29.0995 26.7855 29.5734 25.7821 29.7365C24.7787 29.8996 23.7493 29.7437 22.8392 29.2908L22.4028 29.0749L20.4835 29.5294L20.4892 29.5056L20.8869 27.5737L20.6733 27.1522C20.2082 26.2388 20.0442 25.2017 20.2046 24.1895C20.3651 23.1772 20.8418 22.2417 21.5665 21.5169C22.477 20.6066 23.7119 20.0953 24.9994 20.0953C26.287 20.0953 27.5218 20.6066 28.4324 21.5169C28.4401 21.5258 28.4485 21.5342 28.4574 21.5419C29.3567 22.4546 29.8587 23.6857 29.854 24.967C29.8493 26.2482 29.3383 27.4757 28.4324 28.3817Z" fill="white"/>
<path d="M28.261 26.9647C28.0258 27.3351 27.6542 27.7885 27.1871 27.901C26.369 28.0988 25.1133 27.9079 23.5508 26.451L23.5315 26.434C22.1576 25.1601 21.8008 24.0999 21.8871 23.259C21.9349 22.7817 22.3326 22.3499 22.6678 22.0681C22.7208 22.0228 22.7837 21.9906 22.8513 21.974C22.919 21.9574 22.9896 21.9569 23.0575 21.9725C23.1255 21.988 23.1888 22.0193 23.2425 22.0637C23.2961 22.1081 23.3387 22.1645 23.3667 22.2283L23.8724 23.3647C23.9052 23.4384 23.9174 23.5196 23.9076 23.5997C23.8978 23.6797 23.8664 23.7556 23.8167 23.8192L23.561 24.151C23.5061 24.2195 23.473 24.3029 23.4659 24.3904C23.4589 24.4779 23.4781 24.5655 23.5212 24.6419C23.6644 24.8931 24.0076 25.2624 24.3883 25.6044C24.8155 25.9908 25.2894 26.3442 25.5894 26.4647C25.6697 26.4975 25.7579 26.5055 25.8428 26.4876C25.9277 26.4698 26.0052 26.427 26.0655 26.3647L26.3621 26.0658C26.4194 26.0094 26.4905 25.9691 26.5684 25.9492C26.6462 25.9292 26.728 25.9302 26.8053 25.9522L28.0065 26.2931C28.0727 26.3134 28.1334 26.3486 28.184 26.396C28.2346 26.4434 28.2736 26.5017 28.2982 26.5665C28.3228 26.6313 28.3322 26.7009 28.3257 26.7699C28.3193 26.8389 28.2971 26.9055 28.261 26.9647Z" fill="white"/>
</g>
</g>
<defs>
<filter id="filter0_d_232_20731" x="-2.20971" y="-2.20971" width="54.4194" height="54.4194" filterUnits="userSpaceOnUse" color-interpolation-filters="sRGB">
<feFlood flood-opacity="0" result="BackgroundImageFix"/>
<feColorMatrix in="SourceAlpha" type="matrix" values="0 0 0 0 0 0 0 0 0 0 0 0 0 0 0 0 0 0 127 0" result="hardAlpha"/>
<feOffset/>
<feGaussianBlur stdDeviation="1.10485"/>
<feComposite in2="hardAlpha" operator="out"/>
<feColorMatrix type="matrix" values="0 0 0 0 0 0 0 0 0 0 0 0 0 0 0 0 0 0 0.2 0"/>
<feBlend mode="normal" in2="BackgroundImageFix" result="effect1_dropShadow_232_20731"/>
<feBlend mode="normal" in="SourceGraphic" in2="effect1_dropShadow_232_20731" result="shape"/>
</filter>
<clipPath id="clip0_232_20731">
<rect width="20" height="20" fill="white" transform="translate(15 15)"/>
</clipPath>
</defs>
</svg>
